<?xml version="1.0" encoding="UTF-8" standalone="no"?>
<!-- Created with Inkscape (http://www.inkscape.org/) -->

<svg
   xmlns:dc="http://purl.org/dc/elements/1.1/"
   xmlns:cc="http://creativecommons.org/ns#"
   xmlns:rdf="http://www.w3.org/1999/02/22-rdf-syntax-ns#"
   xmlns:svg="http://www.w3.org/2000/svg"
   xmlns="http://www.w3.org/2000/svg"
   xmlns:xlink="http://www.w3.org/1999/xlink"
   xmlns:sodipodi="http://sodipodi.sourceforge.net/DTD/sodipodi-0.dtd"
   xmlns:inkscape="http://www.inkscape.org/namespaces/inkscape"
   width="16"
   height="16"
   id="svg2"
   sodipodi:version="0.32"
   inkscape:version="0.91 r13725"
   version="1.0"
   sodipodi:docname="edit-find-symbolic.svg"
   inkscape:output_extension="org.inkscape.output.svg.inkscape"
   inkscape:export-filename="/home/matt/.icons/Sirocco/scalable/mimetypes/text-plain.png"
   inkscape:export-xdpi="90"
   inkscape:export-ydpi="90"
   sodipodi:modified="true"
   style="display:inline">
  <sodipodi:namedview
     id="base"
     pagecolor="#ffffff"
     bordercolor="#666666"
     borderopacity="1.0"
     inkscape:pageopacity="0.0"
     inkscape:pageshadow="2"
     inkscape:zoom="17.578558"
     inkscape:cx="-16.427354"
     inkscape:cy="5.6190787"
     inkscape:document-units="px"
     inkscape:current-layer="layer1"
     width="128px"
     height="128px"
     inkscape:showpageshadow="false"
     inkscape:window-width="1920"
     inkscape:window-height="1004"
     inkscape:window-x="0"
     inkscape:window-y="25"
     showguides="true"
     inkscape:guide-bbox="true"
     showgrid="true"
     inkscape:window-maximized="1">
    <sodipodi:guide
       id="guide2226"
       position="32.637397,117.99844"
       orientation="horizontal" />
    <sodipodi:guide
       id="guide2230"
       position="110,57.402344"
       orientation="vertical" />
    <sodipodi:guide
       id="guide2232"
       position="33.760911"
       orientation="horizontal" />
    <sodipodi:guide
       id="guide2231"
       position="46.774696"
       orientation="horizontal" />
    <inkscape:grid
       enabled="true"
       visible="true"
       id="grid3231"
       type="xygrid" />
    <sodipodi:guide
       orientation="1,0"
       position="100,67.625"
       id="guide2713" />
  </sodipodi:namedview>
  <defs
     id="defs4">
    <inkscape:perspective
       sodipodi:type="inkscape:persp3d"
       inkscape:vp_x="0 : 11 : 1"
       inkscape:vp_y="0 : 1000 : 0"
       inkscape:vp_z="22 : 11 : 1"
       inkscape:persp3d-origin="11 : 7.3333333 : 1"
       id="perspective19" />
    <linearGradient
       id="StandardGradient"
       gradientTransform="matrix(0.8222562,0,0,0.8222562,-1.5084521,-0.5995615)"
       x1="10.710332"
       y1="1.9963325"
       x2="10.710332"
       y2="18.974037"
       gradientUnits="userSpaceOnUse">
      <stop
         style="stop-color:#000000;stop-opacity:0.86274511;"
         offset="0"
         id="stop3277" />
      <stop
         style="stop-color:#000000;stop-opacity:0.47058824;"
         offset="1"
         id="stop3279" />
    </linearGradient>
    <linearGradient
       inkscape:collect="always"
       xlink:href="#StandardGradient"
       id="linearGradient3620"
       gradientUnits="userSpaceOnUse"
       gradientTransform="matrix(0.8222562,0,0,0.8222562,-21.508452,-0.5995615)"
       x1="10.710332"
       y1="1.9963325"
       x2="10.710332"
       y2="18.974037" />
    <clipPath
       clipPathUnits="userSpaceOnUse"
       id="clipPath3627">
      <path
         style="fill:#ff00ff;fill-opacity:1;stroke:none"
         d="m -20,0 0,16 16,0 0,-16 -16,0 z m 5.9375,1 c 1.26517,-1e-8 2.535394,0.4764293 3.5,1.4375 1.681841,1.6756779 1.906787,4.247112 0.65625,6.15625 0.016338,0.324513 0.069521,0.876549 0.28125,1.0625 0.288287,0.25319 0.966874,-0.1105761 1.40625,0.375 l 3.03125,3.0625 c 0,0 0.594502,0.564957 -0.28125,1.4375 -0.875752,0.872544 -1.4375,0.28125 -1.4375,0.28125 L -9.9375,11.71875 c -0.487362,-0.437765 -0.120877,-1.087768 -0.375,-1.375 -0.186635,-0.210952 -0.736795,-0.26497 -1.0625,-0.28125 -1.916159,1.245955 -4.50566,1.019429 -6.1875,-0.65625 -1.92921,-1.922141 -1.929211,-5.0466084 0,-6.96875 C -16.597895,1.4764293 -15.32767,1 -14.0625,1 z m 0.03125,1.65625 c -0.909438,10e-8 -1.747342,0.343278 -2.34375,0.9375 -0.596407,0.5942221 -0.96875,1.4376439 -0.96875,2.34375 0,1.8122134 1.493625,3.281251 3.3125,3.28125 1.818878,0 3.28125,-1.4690366 3.28125,-3.28125 0,-1.8122125 -1.462373,-3.28125 -3.28125,-3.28125 z"
         id="path3629" />
    </clipPath>
    <linearGradient
       inkscape:collect="always"
       xlink:href="#StandardGradient"
       id="linearGradient4460"
       gradientUnits="userSpaceOnUse"
       gradientTransform="matrix(0.8222562,0,0,0.8222562,-1.5084521,-0.5995615)"
       x1="10.710332"
       y1="1.9963325"
       x2="10.710332"
       y2="18.974037" />
    <linearGradient
       inkscape:collect="always"
       xlink:href="#StandardGradient"
       id="linearGradient4464"
       gradientUnits="userSpaceOnUse"
       gradientTransform="matrix(0.8222562,0,0,0.8222562,-1.5084521,-0.5995615)"
       x1="10.710332"
       y1="1.9963325"
       x2="10.710332"
       y2="18.974037" />
  </defs>
  <metadata
     id="metadata7">
    <rdf:RDF>
      <cc:Work
         rdf:about="">
        <dc:format>image/svg+xml</dc:format>
        <dc:type
           rdf:resource="http://purl.org/dc/dcmitype/StillImage" />
      </cc:Work>
    </rdf:RDF>
  </metadata>
  <g
     style="display:inline"
     inkscape:label="Calque 1"
     id="layer1"
     inkscape:groupmode="layer">
    <path
       id="BevelShadow"
       style="opacity:1;fill:#bebebe;fill-opacity:1;stroke:none;stroke-width:1;stroke-linecap:butt;stroke-linejoin:round;stroke-miterlimit:4;stroke-dasharray:none;stroke-dashoffset:0;stroke-opacity:1"
       d="m 5.9375,1 c -1.2651705,0 -2.5353948,0.4764293 -3.5,1.4375 -1.0935374,1.0895308 -1.52116592,2.5770431 -1.375,4 0.1086549,-1.0930808 0.5351969,-2.1632739 1.375,-3 1.9292103,-1.9221413 5.0707895,-1.9221414 7,0 0.816029,0.8130384 1.278535,1.8469911 1.40625,2.90625 C 10.965624,4.943372 10.513562,3.5096191 9.4375,2.4375 8.4728947,1.4764293 7.2026705,0.99999999 5.9375,1 Z m -3.25,5.4375 c -0.023392,0.1588634 -0.03125,0.3356754 -0.03125,0.5 0,1.8122134 1.4936244,3.281251 3.3125,3.28125 1.8188777,0 3.2812498,-1.4690368 3.28125,-3.28125 0,-0.1643246 -0.00783,-0.3421373 -0.03125,-0.5 C 8.9743559,8.0097083 7.6149365,9.21875 5.96875,9.21875 4.3225654,9.2187513 2.9318943,8.0097086 2.6875,6.4375 Z m 7.53125,2.9375 c -0.04341,0.074692 -0.0773,0.1459265 -0.125,0.21875 0.01634,0.324513 0.06952,0.876549 0.28125,1.0625 0.288287,0.25319 0.966874,-0.110576 1.40625,0.375 l 3.03125,3.0625 c 0,0 0.02196,0.02111 0.03125,0.03125 0.362727,-0.631969 -0.03125,-1.03125 -0.03125,-1.03125 l -3.03125,-3.0625 C 11.341874,9.5456737 10.663287,9.90944 10.375,9.65625 10.308291,9.5976627 10.256672,9.4837946 10.21875,9.375 Z M 2.4469076,2.4416061 c -1.92921019,1.9221416 -1.92921009,5.0421398 0,6.9642808 1.6818402,1.6756791 4.272808,1.8988571 6.1889674,0.6529021 0.325705,0.01628 0.850926,0.06109 1.037561,0.272042 0.254123,0.287232 -0.105101,0.958719 0.382261,1.396484 l 3.031041,3.071232 c 0,0 0.562273,0.600501 1.438025,-0.272043 0.875752,-0.872543 0.273043,-1.432755 0.273043,-1.432755 L 11.766764,10.022517 C 11.327388,9.5369409 10.653432,9.8948469 10.365145,9.6416569 10.153416,9.4557059 10.10844,8.9324089 10.092102,8.6078959 11.342639,6.6987579 11.118641,4.117284 9.4368,2.4416061 c -1.9292105,-1.92214145 -5.0606821,-1.92214135 -6.9898924,0 z m 1.1831848,1.1425773 c 0.5964074,-0.594222 1.4205257,-0.9430796 2.3299641,-0.9430797 1.8188769,0 3.2947145,1.4704303 3.2947145,3.2826428 0,1.8122134 -1.4758368,3.2826434 -3.2947145,3.2826434 -1.8188758,1e-6 -3.2947148,-1.47043 -3.2947148,-3.2826434 1e-7,-0.9061061 0.3683435,-1.745341 0.9647507,-2.3395631 z" />
  </g>
</svg>
